<svg xmlns="http://www.w3.org/2000/svg" viewBox="0 0 512 512">
  <defs>
    <linearGradient id="bg" x1="86" y1="52" x2="426" y2="462" gradientUnits="userSpaceOnUse">
      <stop stop-color="#232323"/>
      <stop offset="1" stop-color="#050505"/>
    </linearGradient>
    <filter id="shadow" x="-20%" y="-20%" width="140%" height="140%">
      <feDropShadow dx="0" dy="18" stdDeviation="16" flood-color="#000000" flood-opacity="0.42"/>
    </filter>
  </defs>

  <rect width="512" height="512" rx="116" fill="url(#bg)"/>
  <path d="M111 166c40-48 89-72 145-72s105 24 145 72" fill="none" stroke="#ffffff" stroke-width="13" stroke-linecap="round" opacity="0.34"/>
  <path d="M92 256h58M362 256h58M256 92v58M256 362v58" fill="none" stroke="#ffffff" stroke-width="18" stroke-linecap="round" opacity="0.9"/>
  <circle cx="256" cy="256" r="172" fill="none" stroke="#ffffff" stroke-width="12" opacity="0.22"/>

  <g filter="url(#shadow)">
    <path d="M154 221c0-64 43-108 102-108s102 44 102 108v63c0 71-45 116-102 116s-102-45-102-116v-63Z" fill="#ffffff"/>
    <path d="M162 230c31-27 63-40 94-40s63 13 94 40c-21-70-167-70-188 0Z" fill="#050505" opacity="0.92"/>
    <path d="M190 255c20-17 43-17 63 0-18 18-42 18-63 0Z" fill="#050505"/>
    <path d="M259 255c20-17 43-17 63 0-18 18-42 18-63 0Z" fill="#050505"/>
    <path d="M203 315c32 34 74 34 106 0" fill="none" stroke="#050505" stroke-width="17" stroke-linecap="round"/>
    <path d="M211 363c30 18 60 18 90 0" fill="none" stroke="#050505" stroke-width="10" stroke-linecap="round" opacity="0.4"/>
  </g>
</svg>
